<?xml version="1.0" encoding="UTF-8" standalone="no"?>
<svg
   width="1544"
   height="500"
   id="svg2"
   version="1.1"
   xmlns="http://www.w3.org/2000/svg"
   xmlns:svg="http://www.w3.org/2000/svg">
  <defs
     id="defs155" />
  <rect
     style="fill:#9b5c8f;fill-opacity:1;stroke:none;stroke-width:3.43883"
     id="rect3304"
     width="1550"
     height="500"
     x="-1550"
     y="2.6171874e-06"
     ry="0"
     transform="scale(-1,1)" />
  <path
     id="rect3781"
     style="opacity:0.439632;stroke-width:6.05921;stroke-linecap:square;filter:url(#filter3899)"
     d="m 1294.7206,133.67548 172.9627,-3.54117 c -0.4826,43.0153 -3.4115,83.56133 -6.1521,125.60377 l -101.7832,7.6397 z" />
  <path
     id="rect252"
     style="fill:#ffffff;stroke-width:6.05921;stroke-linecap:square"
     d="m 1271.0065,130.28934 111.3394,7.3e-4 c 12.2112,0.18198 39.6884,1.81495 76.4454,-3.75414 5.8818,31.03154 5.2364,43.62845 5.6003,60.66678 v 196.18781 h -193.3851 z" />
  <g
     id="g1239"
     style="fill:#333333"
     transform="matrix(0.42955322,0,0,0.42955322,1274.9124,-223.65492)">
    <path
       d="m 59.90697,866.78339 c 2.120872,-2.8783 5.302254,-4.39329 9.543998,-4.69623 7.726067,-0.60597 12.119354,3.02984 13.179863,10.90745 4.696224,31.66241 9.846934,58.47575 15.301314,80.44291 l 33.176395,-63.17198 c 3.02984,-5.75673 6.8171,-8.78657 11.36193,-9.08951 6.6657,-0.45449 10.7559,3.78726 12.42229,12.72538 3.78726,20.14894 8.63503,37.26702 14.39177,51.8099 3.93881,-38.47966 10.60451,-66.20138 19.99755,-83.32092 2.27242,-4.24175 5.6052,-6.36262 9.99848,-6.6657 3.48432,-0.30299 6.66571,0.75746 9.544,3.02983 2.8783,2.27242 4.39327,5.15072 4.69621,8.63504 0.15149,2.7269 -0.30298,4.99916 -1.51499,7.27158 -5.90812,10.90745 -10.75589,29.2386 -14.69426,54.68791 -3.78726,24.69377 -5.15071,43.93287 -4.24174,57.71876 0.30298,3.78726 -0.30298,7.12019 -1.81793,9.99845 -1.81793,3.33284 -4.54483,5.15064 -8.02901,5.45364 -3.93881,0.303 -8.02901,-1.5149 -11.96782,-5.60514 -14.08868,-14.39178 -25.29936,-35.90301 -33.47918,-64.53602 -9.84694,19.3905 -17.11808,33.93483 -21.81431,43.63008 -8.93797,17.11808 -16.512495,25.90488 -22.875555,26.35908 -4.09034,0.303 -7.574665,-3.18134 -10.604503,-10.4529 -7.726066,-19.84615 -16.058304,-58.17296 -24.996567,-114.98188 -0.605968,-3.93881 0.302983,-7.42313 2.423812,-10.15003 z"
       fill="#ffffff"
       id="path869-6"
       style="fill:#333333;stroke-width:1.45574" />
    <path
       style="vector-effect:none;fill:#333333;fill-opacity:1;stroke:none;stroke-width:1.88498;stroke-linecap:round;stroke-linejoin:round;stroke-miterlimit:4;stroke-dasharray:none;stroke-dashoffset:64.252;stroke-opacity:0;paint-order:fill markers stroke"
       d="m 85.850764,904.9313 c 0,0 5.438001,-0.46477 7.958101,-0.9953 2.52,-0.53053 4.3105,-1.06072 5.3715,-1.59129 l 1.591305,-0.59683 c 2.6527,-0.26532 4.4431,-2.18804 5.3716,-5.76915 1.0611,-3.71368 0.9287,-7.29464 -0.3977,-10.74311 -1.3263,-3.44844 -3.3157,-5.1066 -5.968305,-4.97394 -17.242298,1.45894 -31.433698,2.18812 -42.574798,2.18812 -4.6422,0 7.522,-0.1988 0.4924,-0.59682 -6.8969,-0.39791 -12.6671,-0.72919 -17.3092,-0.99443 l -7.1621,-0.59687 c -2.6526,-0.13266 -4.642,1.59122 -5.9684,5.17232 -1.3263,3.44844 -1.5252,7.02936 -0.5968,10.74312 1.0611,3.58107 2.9181,5.43814 5.5708,5.57076 l 16.7115,1.5913 z"
       id="path913-7" />
    <path
       style="vector-effect:none;fill:#333333;fill-opacity:1;stroke:none;stroke-width:1.88498;stroke-linecap:round;stroke-linejoin:round;stroke-miterlimit:4;stroke-dasharray:none;stroke-dashoffset:64.252;stroke-opacity:0;paint-order:fill markers stroke"
       d="m 86.134236,938.61714 c 0,0 5.437999,-0.46477 7.958099,-0.9953 2.52,-0.53053 4.3105,-1.06072 5.3715,-1.59129 l 1.591305,-0.59683 c 2.6527,-0.26532 4.4431,-2.18804 5.3716,-5.76915 1.0611,-3.71368 0.9287,-7.29464 -0.3977,-10.74311 -1.3263,-3.44844 -3.3157,-5.1066 -5.9683,-4.97394 -17.242299,1.45894 -25.433699,2.18812 -36.574799,2.18812 -4.6422,0 7.522,-0.1988 0.4924,-0.59682 -6.8969,-0.39791 -12.6671,-0.72919 -17.3092,-0.99443 l -7.1621,-0.59687 c -2.6526,-0.13266 -4.642,1.59122 -5.9684,5.17232 -1.3263,3.44844 -1.5252,7.02936 -0.5968,10.74312 1.0611,3.58107 2.9181,5.43814 5.5708,5.57076 l 16.7115,1.5913 z"
       id="path924-5" />
  </g>
  <rect
     style="fill:#ffffff;stroke:#333333;stroke-width:6.05921;stroke-linecap:square;stroke-opacity:1"
     id="rect1460"
     width="154.65863"
     height="47.188591"
     x="1291.8506"
     y="220.53082" />
  <rect
     style="fill:#ffffff;stroke:#333333;stroke-width:6.05921;stroke-linecap:square;stroke-opacity:1"
     id="rect3142"
     width="154.65863"
     height="47.188591"
     x="1291.8506"
     y="267.71936" />
  <rect
     style="fill:#ffffff;stroke:#333333;stroke-width:6.05921;stroke-linecap:square;stroke-opacity:1"
     id="rect3224"
     width="154.65863"
     height="47.188591"
     x="1291.8506"
     y="314.90796" />
  <path
     id="rect1207"
     style="fill:#666666;stroke-width:19.0595;paint-order:markers fill stroke;stop-color:#000000"
     transform="matrix(0.99974872,0.02241629,0,1,0,0)"
     d="m 495.19714,147.01297 h 506.67626 v 218.939 H 495.19714 Z" />
  <path
     id="rect386"
     style="fill:#ffffff;stroke-width:18.8976;paint-order:markers fill stroke;stop-color:#000000"
     d="m 494.74814,157.66409 h 498.10522 v 218.939 H 494.74814 Z" />
  <path
     id="path1210"
     style="fill:#666666;stroke-width:19.0571;paint-order:markers fill stroke;stop-color:#000000"
     d="m 468.80789,143.943 506.27413,-27.50905 13.62275,218.31763 -506.27413,27.50905 z" />
  <path
     id="path11040"
     style="fill:#ffffff;stroke-width:18.8976;paint-order:markers fill stroke;stop-color:#000000"
     d="m 470.81747,137.89561 488.90162,-31.62466 13.83252,223.02612 -490.62515,25.46321 z" />
  <path
     style="fill:none;stroke:#000000;stroke-width:1px;stroke-linecap:butt;stroke-linejoin:miter;stroke-opacity:1"
     d="m 529.95402,229.92173 381.51364,-26.4715"
     id="path526" />
  <path
     style="fill:none;stroke:#000000;stroke-width:1px;stroke-linecap:butt;stroke-linejoin:miter;stroke-opacity:1"
     d="m 531.33841,249.87376 381.51363,-26.4715"
     id="path528" />
  <path
     style="fill:none;stroke:#000000;stroke-width:1px;stroke-linecap:butt;stroke-linejoin:miter;stroke-opacity:1"
     d="m 801.99236,283.21933 114.45907,-7.94179"
     id="path530" />
</svg>
